<svg id="Layer_1" data-name="Layer 1" xmlns="http://www.w3.org/2000/svg" viewBox="0 0 353.91 80" width="353.91" height="80">
    <defs>
        <style>
            .cls-1{fill:#1D1D1B;}
            @media (prefers-color-scheme: dark) {
                .cls-1{fill:#fff;}
            }
            .cls-2{fill:#4775b9;}.cls-3{fill:#63ba8f;}</style>
    </defs>
    <path class="cls-1" d="M101.28,13.17h7.06L124.7,61h-5.83l-3.81-11.47H94.7L90.89,61H85Zm12.29,31.37L105,18.47,96.12,44.54Z" />
    <path class="cls-1" d="M133.43,60.77a13.57,13.57,0,0,1-5.2-4.31,11.8,11.8,0,0,1-2.17-6.28l5-1.16a9,9,0,0,0,1.42,4.55,8.18,8.18,0,0,0,3.46,3,11.22,11.22,0,0,0,4.82,1,12,12,0,0,0,4.15-.68,6.87,6.87,0,0,0,2.95-2A4.34,4.34,0,0,0,149,52a3.76,3.76,0,0,0-1.22-2.89,9,9,0,0,0-3-1.76Q143,46.72,140.18,46a50.79,50.79,0,0,1-6.41-2,10.82,10.82,0,0,1-4.18-3,7.88,7.88,0,0,1-1.7-5.26,9.32,9.32,0,0,1,1.53-5.2,10.5,10.5,0,0,1,4.14-3.66,12.75,12.75,0,0,1,5.88-1.33,13.19,13.19,0,0,1,5.9,1.33,11.75,11.75,0,0,1,4.42,3.63,10.2,10.2,0,0,1,2,5.16l-5,1.29A6.55,6.55,0,0,0,144.49,32a7.63,7.63,0,0,0-5.19-1.8,7.48,7.48,0,0,0-3.23.68,5.53,5.53,0,0,0-2.3,1.9,4.61,4.61,0,0,0-.85,2.71,3.76,3.76,0,0,0,1.22,2.89A8.35,8.35,0,0,0,136.62,40a41.26,41.26,0,0,0,5.19,1.39,42.27,42.27,0,0,1,6.28,2.17,12,12,0,0,1,4.25,3.13A7.22,7.22,0,0,1,154,51.54a9.29,9.29,0,0,1-1.76,5.53,11.82,11.82,0,0,1-4.79,3.87,16.08,16.08,0,0,1-6.82,1.39A16.39,16.39,0,0,1,133.43,60.77Z" />
    <path class="cls-1" d="M162.79,76.59a17,17,0,0,1-5.6-3.87,17.65,17.65,0,0,1-3.7-5.77L157.84,64a12.72,12.72,0,0,0,4.27,6.68,11.16,11.16,0,0,0,7.27,2.55,9.93,9.93,0,0,0,5.6-1.59,11.17,11.17,0,0,0,3.8-4.35,13.51,13.51,0,0,0,1.39-6.21l-.06-4.62a11.12,11.12,0,0,1-2.52,3,12.28,12.28,0,0,1-3.46,2.07,10.48,10.48,0,0,1-3.87.75,11.39,11.39,0,0,1-10.52-6.48,15.49,15.49,0,0,1-1.5-7V26.75h5.16V48.89a10.15,10.15,0,0,0,.95,4.51,7.68,7.68,0,0,0,2.72,3.09,7.26,7.26,0,0,0,4.07,1.15,8.62,8.62,0,0,0,4.55-1.22,8.77,8.77,0,0,0,3.23-3.36,9.82,9.82,0,0,0,1.19-4.85V26.75h5.16l.06,34.36a18.11,18.11,0,0,1-2,8.65,15.16,15.16,0,0,1-13.72,8.18A17.08,17.08,0,0,1,162.79,76.59Z" />
    <path class="cls-1" d="M192.12,26.75h4.69l.47,4.55a10.76,10.76,0,0,1,4.15-4.24,11.13,11.13,0,0,1,5.7-1.6,11.37,11.37,0,0,1,6.28,1.77A12.08,12.08,0,0,1,217.69,32a15.22,15.22,0,0,1,1.52,6.9V61H214V38.91a10.49,10.49,0,0,0-.92-4.48,7,7,0,0,0-2.72-3.09,7.59,7.59,0,0,0-4.11-1.12,8.52,8.52,0,0,0-4.48,1.22,9,9,0,0,0-3.25,3.36,9.56,9.56,0,0,0-1.23,4.85V61h-5.16V26.75Z" />
    <path class="cls-1" d="M232,60a15.87,15.87,0,0,1-5.71-6.55,20.86,20.86,0,0,1-2-9.47,23.27,23.27,0,0,1,1.87-9.54,15.56,15.56,0,0,1,5.26-6.55A13.9,13.9,0,0,1,245.49,27a14.12,14.12,0,0,1,4.78,4A15,15,0,0,1,253,36.94l-5,1.36a12.19,12.19,0,0,0-3.29-6,7.89,7.89,0,0,0-10.49-.47,11.4,11.4,0,0,0-3.5,4.92,19.16,19.16,0,0,0-1.26,7.16,17.31,17.31,0,0,0,1.4,7.13A11.81,11.81,0,0,0,234.73,56a9.29,9.29,0,0,0,5.6,1.8,9.56,9.56,0,0,0,4.92-1.29,10.18,10.18,0,0,0,3.6-3.6,13.61,13.61,0,0,0,1.8-5.22l4.95,1.08a15.91,15.91,0,0,1-2.68,7A15.54,15.54,0,0,1,232,60Z" />
    <path class="cls-1" d="M273.87,13h10L300.28,61h-8.49l-3.33-10.66h-19L265.92,61h-8.35ZM286.63,43.8,279,20.17,271.15,43.8Z" />
    <path class="cls-1" d="M304.83,13H323.7a19.1,19.1,0,0,1,8.62,1.9,15,15,0,0,1,6,5.3,13.88,13.88,0,0,1,2.21,7.74,13.94,13.94,0,0,1-2.17,7.7,15.35,15.35,0,0,1-6,5.33,18.45,18.45,0,0,1-8.59,2h-11V61h-7.94V13Zm18,23.15a11.15,11.15,0,0,0,4.85-1,8.35,8.35,0,0,0,3.46-2.92,7.4,7.4,0,0,0,1.26-4.24,7.63,7.63,0,0,0-1.22-4.25,8.39,8.39,0,0,0-3.4-2.92,11.22,11.22,0,0,0-4.95-1H312.77V36.12Z" />
    <path class="cls-1" d="M345.77,13h8.14V61h-8.14Z" />
    <path class="cls-2" d="M28.65,80C12.85,80,0,70.42,0,58.64H5.67c0,8.65,10.31,15.68,23,15.68s23-7,23-15.68H57.3C57.3,70.42,44.45,80,28.65,80Z" />
    <path class="cls-2" d="M57.3,21.36H51.63c0-8.65-10.31-15.68-23-15.68s-23,7-23,15.68H0C0,9.58,12.85,0,28.65,0S57.3,9.58,57.3,21.36Z" />
    <rect class="cls-3" x="17.38" y="21.79" width="5.67" height="36.44" transform="translate(-24.05 32.91) rotate(-54.08)" />
    <polygon class="cls-3" points="50.41 52.96 20.89 31.59 24.21 26.99 53.73 48.37 50.41 52.96" />
</svg>