<svg width="870" height="195" viewBox="0 0 870 195" fill="none" xmlns="http://www.w3.org/2000/svg">
<rect width="870" height="195" rx="10" fill="#4775B9"/>
<g clip-path="url(#clip0_2_174)" filter="url(#filter0_d_2_174)">
<path d="M263.927 74.3608H270.055L284.255 115.648H279.187L275.944 105.748H258.21L254.903 115.648H249.78L263.927 74.3608ZM274.594 101.421L267.072 78.9245L259.41 101.421H274.594Z" fill="white"/>
<path d="M291.831 115.412C290.036 114.574 288.485 113.295 287.324 111.697C286.19 110.124 285.534 108.26 285.433 106.328L289.756 105.329C289.803 106.726 290.228 108.084 290.988 109.259C291.729 110.383 292.774 111.276 294.003 111.837C295.315 112.433 296.743 112.733 298.186 112.717C299.408 112.737 300.623 112.537 301.774 112.126C302.769 111.784 303.656 111.188 304.346 110.398C304.965 109.713 305.311 108.827 305.318 107.906C305.33 107.44 305.239 106.976 305.052 106.548C304.866 106.12 304.588 105.737 304.238 105.426C303.48 104.751 302.595 104.232 301.633 103.901C300.617 103.525 299.277 103.128 297.634 102.698C295.737 102.239 293.874 101.651 292.058 100.937C290.657 100.375 289.415 99.4836 288.437 98.3388C287.406 97.0534 286.879 95.439 286.957 93.7966C286.941 92.2058 287.404 90.6467 288.286 89.3189C289.171 87.9421 290.415 86.8289 291.885 86.0975C293.47 85.3199 295.219 84.9297 296.986 84.9593C298.759 84.9408 300.512 85.3304 302.109 86.0975C303.624 86.8185 304.941 87.8945 305.945 89.233C306.91 90.5375 307.5 92.0777 307.653 93.6893L303.33 94.7631C303.34 93.9527 303.174 93.1497 302.844 92.4085C302.514 91.6674 302.027 91.0055 301.417 90.4679C300.404 89.6601 299.187 89.143 297.9 88.9727C296.612 88.8023 295.302 88.9852 294.111 89.5014C293.302 89.8555 292.607 90.4239 292.101 91.1443C291.617 91.8298 291.36 92.648 291.366 93.4852C291.353 93.9536 291.443 94.4191 291.63 94.8494C291.816 95.2796 292.095 95.6643 292.447 95.9765C293.078 96.5661 293.81 97.0389 294.608 97.3724C296.081 97.8749 297.587 98.2767 299.115 98.5751C300.981 99.0597 302.805 99.688 304.573 100.454C305.985 101.073 307.243 101.993 308.258 103.149C309.255 104.323 309.779 105.823 309.728 107.359C309.743 109.074 309.205 110.748 308.193 112.137C307.133 113.597 305.701 114.75 304.043 115.477C302.108 116.288 300.026 116.693 297.927 116.667C295.827 116.641 293.756 116.185 291.842 115.326L291.831 115.412Z" fill="white"/>
<path d="M317.325 129.06C315.493 128.286 313.839 127.149 312.462 125.721C311.063 124.287 309.961 122.594 309.22 120.738L312.991 118.226C313.58 120.49 314.879 122.509 316.698 123.992C318.481 125.425 320.717 126.185 323.01 126.14C324.733 126.178 326.428 125.699 327.873 124.765C329.267 123.821 330.385 122.528 331.115 121.018C331.946 119.35 332.361 117.509 332.325 115.648L332.26 111.665C331.701 112.655 330.969 113.538 330.099 114.274C329.2 115.029 328.181 115.632 327.084 116.057C326.018 116.48 324.881 116.699 323.734 116.701C321.831 116.741 319.957 116.235 318.336 115.245C316.714 114.255 315.414 112.822 314.591 111.117C313.697 109.243 313.253 107.188 313.294 105.115V86.076H317.865V105.168C317.833 106.51 318.114 107.84 318.687 109.055C319.211 110.141 320.026 111.063 321.043 111.718C322.099 112.393 323.332 112.741 324.587 112.717C325.977 112.726 327.341 112.354 328.532 111.643C329.707 110.941 330.674 109.94 331.331 108.744C332.033 107.46 332.387 106.017 332.358 104.556V86.076H336.843L336.886 115.745C336.936 118.357 336.331 120.94 335.124 123.262C333.995 125.417 332.286 127.217 330.187 128.463C328.087 129.709 325.681 130.35 323.237 130.317C321.201 130.301 319.189 129.873 317.325 129.06V129.06Z" fill="white"/>
<path d="M342.787 86.076H346.85L347.261 89.9954C348.092 88.464 349.339 87.1953 350.86 86.3337C352.354 85.4399 354.065 84.965 355.809 84.9592C357.721 84.9335 359.6 85.4634 361.213 86.484C362.807 87.4964 364.092 88.9222 364.93 90.6074C365.841 92.4578 366.297 94.4967 366.26 96.5563V115.649H361.721V96.5563C361.744 95.225 361.471 93.9049 360.921 92.6906C360.417 91.5918 359.597 90.6654 358.565 90.0276C357.493 89.3741 356.256 89.0388 354.999 89.0612C353.627 89.0568 352.281 89.4283 351.108 90.135C349.926 90.8394 348.95 91.8389 348.277 93.0342C347.551 94.311 347.178 95.7558 347.196 97.2221V115.67H342.722L342.787 86.076Z" fill="white"/>
<path d="M377.38 114.671C375.237 113.274 373.524 111.316 372.431 109.012C371.218 106.461 370.633 103.661 370.723 100.841C370.672 98.0159 371.224 95.2124 372.344 92.6155C373.312 90.3517 374.891 88.3973 376.905 86.9672C378.687 85.7735 380.757 85.0736 382.901 84.9396C385.046 84.8056 387.188 85.2423 389.106 86.2049C390.738 87.0452 392.159 88.2377 393.267 89.6947C394.408 91.2131 395.201 92.9613 395.59 94.8167L391.267 95.9872C390.827 94.0329 389.833 92.2446 388.404 90.8329C387.773 90.2106 387.024 89.7192 386.2 89.3874C385.376 89.0556 384.494 88.8899 383.605 88.9001C382.03 88.8926 380.501 89.4319 379.282 90.4249C377.906 91.5428 376.857 93.0077 376.246 94.6664C375.495 96.638 375.129 98.7332 375.165 100.841C375.124 102.954 375.536 105.051 376.375 106.994C377.088 108.699 378.249 110.182 379.736 111.289C381.147 112.311 382.853 112.854 384.599 112.835C386.112 112.88 387.608 112.508 388.922 111.761C390.214 111.01 391.289 109.941 392.046 108.658C392.875 107.278 393.409 105.743 393.613 104.148L397.935 105.093C397.657 107.268 396.857 109.346 395.601 111.149C394.407 112.894 392.8 114.321 390.922 115.305C388.813 116.372 386.464 116.882 384.1 116.786C381.737 116.69 379.437 115.991 377.424 114.757L377.38 114.671Z" fill="white"/>
<path d="M413.746 74.189H422.468L436.668 115.648H429.309L426.412 106.457H409.91L406.851 115.648H399.6L413.746 74.189ZM424.856 100.776L418.199 80.3741L411.423 100.776H424.856Z" fill="white"/>
<path d="M440.624 74.189H457.007C459.594 74.1458 462.155 74.7048 464.486 75.8212C466.613 76.8449 468.418 78.4267 469.706 80.3956C470.946 82.3977 471.602 84.7024 471.602 87.0532C471.602 89.404 470.946 91.7086 469.706 93.7107C468.404 95.6762 466.604 97.2653 464.486 98.3173C462.173 99.469 459.616 100.051 457.029 100.014H447.551V115.649H440.656L440.624 74.189ZM456.197 94.151C457.652 94.1674 459.092 93.8592 460.412 93.249C461.624 92.6929 462.662 91.8209 463.416 90.7256C464.14 89.6414 464.517 88.3649 464.497 87.0639C464.508 85.7675 464.132 84.4969 463.416 83.413C462.684 82.3193 461.663 81.4464 460.466 80.8895C459.114 80.2619 457.635 79.9497 456.143 79.9768H447.551V94.151H456.197Z" fill="white"/>
<path d="M476.158 74.189H483.215V115.648H476.136L476.158 74.189Z" fill="white"/>
<path d="M200.878 132.003C187.164 132.003 176.022 123.734 176.022 113.576H180.95C180.95 121.093 189.898 127.106 200.9 127.106C211.901 127.106 220.839 121.039 220.839 113.576H225.767C225.745 123.734 214.592 132.003 200.878 132.003Z" fill="white"/>
<path d="M225.745 81.3835H220.817C220.817 73.9313 211.869 67.8643 200.878 67.8643C189.887 67.8643 180.928 73.9313 180.928 81.3835H176C176 71.2253 187.164 62.9678 200.856 62.9678C214.549 62.9678 225.745 71.2575 225.745 81.3835Z" fill="white"/>
<path d="M182.193 86.2936L179.303 90.2594L204.924 108.694L207.814 104.728L182.193 86.2936Z" fill="white"/>
<path d="M197.013 86.2614L194.123 90.2273L219.743 108.662L222.633 104.696L197.013 86.2614Z" fill="white"/>
</g>
<g filter="url(#filter1_d_2_174)">
<rect x="521.138" y="70.8441" width="172" height="45" rx="8" fill="#63BA90"/>
<path d="M562.859 96.6941C562.619 97.4141 562.259 98.0261 561.779 98.5301C561.299 99.0221 560.735 99.3941 560.087 99.6461C559.439 99.8981 558.725 100.024 557.945 100.024C556.805 100.024 555.815 99.7781 554.975 99.2861C554.135 98.7941 553.487 98.0921 553.031 97.1801C552.575 96.2681 552.347 95.1761 552.347 93.9041C552.347 92.6321 552.575 91.5401 553.031 90.6281C553.487 89.7161 554.135 89.0141 554.975 88.5221C555.815 88.0301 556.799 87.7841 557.927 87.7841C558.707 87.7841 559.409 87.8921 560.033 88.1081C560.669 88.3241 561.209 88.6481 561.653 89.0801C562.097 89.5121 562.439 90.0521 562.679 90.7001L560.861 91.5101C560.621 90.8021 560.273 90.2861 559.817 89.9621C559.361 89.6261 558.767 89.4581 558.035 89.4581C557.303 89.4581 556.661 89.6321 556.109 89.9801C555.557 90.3281 555.125 90.8321 554.813 91.4921C554.513 92.1521 554.363 92.9561 554.363 93.9041C554.363 94.8401 554.507 95.6441 554.795 96.3161C555.083 96.9761 555.497 97.4801 556.037 97.8281C556.577 98.1761 557.225 98.3501 557.981 98.3501C558.713 98.3501 559.343 98.1641 559.871 97.7921C560.411 97.4081 560.795 96.8381 561.023 96.0821L562.859 96.6941ZM570.43 87.7841C571.582 87.7841 572.578 88.0301 573.418 88.5221C574.258 89.0141 574.906 89.7161 575.362 90.6281C575.818 91.5401 576.046 92.6321 576.046 93.9041C576.046 95.1761 575.818 96.2681 575.362 97.1801C574.906 98.0921 574.258 98.7941 573.418 99.2861C572.578 99.7781 571.582 100.024 570.43 100.024C569.29 100.024 568.3 99.7781 567.46 99.2861C566.62 98.7941 565.972 98.0921 565.516 97.1801C565.06 96.2681 564.832 95.1761 564.832 93.9041C564.832 92.6321 565.06 91.5401 565.516 90.6281C565.972 89.7161 566.62 89.0141 567.46 88.5221C568.3 88.0301 569.29 87.7841 570.43 87.7841ZM570.43 89.4581C569.686 89.4581 569.044 89.6321 568.504 89.9801C567.976 90.3281 567.568 90.8321 567.28 91.4921C566.992 92.1521 566.848 92.9561 566.848 93.9041C566.848 94.8401 566.992 95.6441 567.28 96.3161C567.568 96.9761 567.976 97.4801 568.504 97.8281C569.044 98.1761 569.686 98.3501 570.43 98.3501C571.186 98.3501 571.828 98.1761 572.356 97.8281C572.896 97.4801 573.31 96.9761 573.598 96.3161C573.886 95.6441 574.03 94.8401 574.03 93.9041C574.03 92.9561 573.886 92.1521 573.598 91.4921C573.31 90.8321 572.896 90.3281 572.356 89.9801C571.828 89.6321 571.186 89.4581 570.43 89.4581ZM591.24 87.9641V99.8441H589.458V92.9681L589.602 89.6921H589.584L585.966 99.8441H584.364L580.746 89.6921H580.728L580.872 92.9681V99.8441H579.09V87.9641H581.952L584.346 94.8401L585.174 97.6661H585.21L586.056 94.8401L588.432 87.9641H591.24ZM607.1 87.9641V99.8441H605.318V92.9681L605.462 89.6921H605.444L601.826 99.8441H600.224L596.606 89.6921H596.588L596.732 92.9681V99.8441H594.95V87.9641H597.812L600.206 94.8401L601.034 97.6661H601.07L601.916 94.8401L604.292 87.9641H607.1ZM620.278 87.9641V95.2901C620.278 96.8621 619.864 98.0441 619.036 98.8361C618.208 99.6281 617.002 100.024 615.418 100.024C613.858 100.024 612.658 99.6281 611.818 98.8361C610.99 98.0441 610.576 96.8621 610.576 95.2901V87.9641H612.502V95.0561C612.502 96.1721 612.742 97.0001 613.222 97.5401C613.702 98.0801 614.434 98.3501 615.418 98.3501C616.414 98.3501 617.152 98.0801 617.632 97.5401C618.112 97.0001 618.352 96.1721 618.352 95.0561V87.9641H620.278ZM633.489 87.9641V99.8441H631.203L626.613 92.3561L625.461 90.2501H625.443L625.515 92.1761V99.8441H623.751V87.9641H626.019L630.591 95.4341L631.761 97.5761H631.779L631.707 95.6321V87.9641H633.489ZM639.111 87.9641V99.8441H637.185V87.9641H639.111ZM651.652 87.9641V89.6201H647.584V99.8441H645.658V89.6201H641.59V87.9641H651.652ZM662.871 87.9641L658.623 95.2901V99.8441H656.697V95.2901L652.467 87.9641H654.609L656.733 91.7981L657.669 93.5621L658.605 91.7981L660.711 87.9641H662.871Z" fill="white"/>
<rect x="521.638" y="71.3441" width="171" height="44" rx="7.5" stroke="white" stroke-opacity="0.43"/>
</g>
<defs>
<filter id="filter0_d_2_174" x="167" y="54" width="325.225" height="87.0025" filterUnits="userSpaceOnUse" color-interpolation-filters="sRGB">
<feFlood flood-opacity="0" result="BackgroundImageFix"/>
<feColorMatrix in="SourceAlpha" type="matrix" values="0 0 0 0 0 0 0 0 0 0 0 0 0 0 0 0 0 0 127 0" result="hardAlpha"/>
<feOffset/>
<feGaussianBlur stdDeviation="4.5"/>
<feComposite in2="hardAlpha" operator="out"/>
<feColorMatrix type="matrix" values="0 0 0 0 0.220417 0 0 0 0 0.363494 0 0 0 0 0.575 0 0 0 0.5 0"/>
<feBlend mode="normal" in2="BackgroundImageFix" result="effect1_dropShadow_2_174"/>
<feBlend mode="normal" in="SourceGraphic" in2="effect1_dropShadow_2_174" result="shape"/>
</filter>
<filter id="filter1_d_2_174" x="512.138" y="61.8441" width="190" height="63" filterUnits="userSpaceOnUse" color-interpolation-filters="sRGB">
<feFlood flood-opacity="0" result="BackgroundImageFix"/>
<feColorMatrix in="SourceAlpha" type="matrix" values="0 0 0 0 0 0 0 0 0 0 0 0 0 0 0 0 0 0 127 0" result="hardAlpha"/>
<feOffset/>
<feGaussianBlur stdDeviation="4.5"/>
<feComposite in2="hardAlpha" operator="out"/>
<feColorMatrix type="matrix" values="0 0 0 0 0.220417 0 0 0 0 0.363494 0 0 0 0 0.575 0 0 0 0.5 0"/>
<feBlend mode="normal" in2="BackgroundImageFix" result="effect1_dropShadow_2_174"/>
<feBlend mode="normal" in="SourceGraphic" in2="effect1_dropShadow_2_174" result="shape"/>
</filter>
<clipPath id="clip0_2_174">
<rect width="307.225" height="69.0025" fill="white" transform="translate(176 63)"/>
</clipPath>
</defs>
</svg>
